<mxfile host="app.diagrams.net" agent="Mozilla/5.0 (Macintosh; Intel Mac OS X 10_15_7) AppleWebKit/537.36 (KHTML, like Gecko) Chrome/136.0.0.0 Safari/537.36" version="27.0.6">
  <diagram name="async-communication" id="xUhEDZO8ZiMwJajzulsk">
    <mxGraphModel dx="-654" dy="144" grid="0" gridSize="10" guides="0" tooltips="1" connect="0" arrows="0" fold="1" page="0" pageScale="1" pageWidth="1169" pageHeight="827" math="0" shadow="0">
      <root>
        <mxCell id="B8Z1G3kK7npDInEbD9tJ-0" />
        <mxCell id="B8Z1G3kK7npDInEbD9tJ-1" parent="B8Z1G3kK7npDInEbD9tJ-0" />
        <mxCell id="GHtyJ5mn8wVj7zlRt9Mc-0" value="" style="shape=cylinder3;whiteSpace=wrap;html=1;boundedLbl=1;backgroundOutline=1;size=15;rotation=90;" parent="B8Z1G3kK7npDInEbD9tJ-1" vertex="1">
          <mxGeometry x="2080.5" y="673.5" width="155" height="390" as="geometry" />
        </mxCell>
        <mxCell id="GHtyJ5mn8wVj7zlRt9Mc-1" style="edgeStyle=orthogonalEdgeStyle;rounded=0;orthogonalLoop=1;jettySize=auto;html=1;entryX=0;entryY=0.5;entryDx=0;entryDy=0;flowAnimation=1;strokeWidth=2;fillColor=#1ba1e2;strokeColor=#006EAF;" parent="B8Z1G3kK7npDInEbD9tJ-1" source="GHtyJ5mn8wVj7zlRt9Mc-2" target="GHtyJ5mn8wVj7zlRt9Mc-19" edge="1">
          <mxGeometry relative="1" as="geometry" />
        </mxCell>
        <mxCell id="GHtyJ5mn8wVj7zlRt9Mc-2" value="Order service" style="shape=image;verticalLabelPosition=bottom;labelBackgroundColor=default;verticalAlign=top;aspect=fixed;imageAspect=0;image=https://images.ctfassets.net/gt6dp23g0g38/5DqlQtFKecFlkqQ8YGDT2p/aa945b648f44dd872e9a1b89f7d203ef/springboot.png;" parent="B8Z1G3kK7npDInEbD9tJ-1" vertex="1">
          <mxGeometry x="1708" y="746" width="77.94" height="70" as="geometry" />
        </mxCell>
        <mxCell id="GHtyJ5mn8wVj7zlRt9Mc-3" style="edgeStyle=orthogonalEdgeStyle;rounded=0;orthogonalLoop=1;jettySize=auto;html=1;entryX=0;entryY=0.5;entryDx=0;entryDy=0;flowAnimation=1;strokeWidth=2;fillColor=#1ba1e2;strokeColor=#006EAF;" parent="B8Z1G3kK7npDInEbD9tJ-1" source="GHtyJ5mn8wVj7zlRt9Mc-4" target="GHtyJ5mn8wVj7zlRt9Mc-11" edge="1">
          <mxGeometry relative="1" as="geometry" />
        </mxCell>
        <mxCell id="GHtyJ5mn8wVj7zlRt9Mc-4" value="Payment service" style="shape=image;verticalLabelPosition=bottom;labelBackgroundColor=default;verticalAlign=top;aspect=fixed;imageAspect=0;image=https://images.ctfassets.net/gt6dp23g0g38/5DqlQtFKecFlkqQ8YGDT2p/aa945b648f44dd872e9a1b89f7d203ef/springboot.png;" parent="B8Z1G3kK7npDInEbD9tJ-1" vertex="1">
          <mxGeometry x="1708" y="896" width="77.94" height="70" as="geometry" />
        </mxCell>
        <mxCell id="GHtyJ5mn8wVj7zlRt9Mc-5" style="edgeStyle=entityRelationEdgeStyle;rounded=0;orthogonalLoop=1;jettySize=auto;html=1;entryX=1;entryY=0.5;entryDx=0;entryDy=0;flowAnimation=1;strokeWidth=2;fillColor=#60a917;strokeColor=#2D7600;" parent="B8Z1G3kK7npDInEbD9tJ-1" source="GHtyJ5mn8wVj7zlRt9Mc-9" target="GHtyJ5mn8wVj7zlRt9Mc-19" edge="1">
          <mxGeometry relative="1" as="geometry" />
        </mxCell>
        <mxCell id="GHtyJ5mn8wVj7zlRt9Mc-6" style="edgeStyle=entityRelationEdgeStyle;rounded=0;orthogonalLoop=1;jettySize=auto;html=1;entryX=1;entryY=0.5;entryDx=0;entryDy=0;flowAnimation=1;strokeWidth=2;fillColor=#60a917;strokeColor=#2D7600;" parent="B8Z1G3kK7npDInEbD9tJ-1" source="GHtyJ5mn8wVj7zlRt9Mc-9" target="GHtyJ5mn8wVj7zlRt9Mc-11" edge="1">
          <mxGeometry relative="1" as="geometry" />
        </mxCell>
        <mxCell id="GHtyJ5mn8wVj7zlRt9Mc-7" style="edgeStyle=orthogonalEdgeStyle;rounded=0;orthogonalLoop=1;jettySize=auto;html=1;shape=link;flowAnimation=1;strokeWidth=2;" parent="B8Z1G3kK7npDInEbD9tJ-1" source="GHtyJ5mn8wVj7zlRt9Mc-9" target="GHtyJ5mn8wVj7zlRt9Mc-27" edge="1">
          <mxGeometry relative="1" as="geometry" />
        </mxCell>
        <mxCell id="GHtyJ5mn8wVj7zlRt9Mc-8" style="edgeStyle=orthogonalEdgeStyle;rounded=0;orthogonalLoop=1;jettySize=auto;html=1;shape=link;" parent="B8Z1G3kK7npDInEbD9tJ-1" source="GHtyJ5mn8wVj7zlRt9Mc-9" target="GHtyJ5mn8wVj7zlRt9Mc-29" edge="1">
          <mxGeometry relative="1" as="geometry" />
        </mxCell>
        <mxCell id="GHtyJ5mn8wVj7zlRt9Mc-9" value="Notification service" style="shape=image;verticalLabelPosition=bottom;labelBackgroundColor=default;verticalAlign=top;aspect=fixed;imageAspect=0;image=https://images.ctfassets.net/gt6dp23g0g38/5DqlQtFKecFlkqQ8YGDT2p/aa945b648f44dd872e9a1b89f7d203ef/springboot.png;" parent="B8Z1G3kK7npDInEbD9tJ-1" vertex="1">
          <mxGeometry x="2508" y="833.5" width="77.94" height="70" as="geometry" />
        </mxCell>
        <mxCell id="GHtyJ5mn8wVj7zlRt9Mc-10" value="" style="group;fillColor=#dae8fc;strokeColor=#6c8ebf;container=0;" parent="B8Z1G3kK7npDInEbD9tJ-1" vertex="1" connectable="0">
          <mxGeometry x="1998" y="876" width="310" height="60" as="geometry" />
        </mxCell>
        <mxCell id="GHtyJ5mn8wVj7zlRt9Mc-11" value="payment-topic" style="rounded=0;whiteSpace=wrap;html=1;container=0;fillColor=#ffe6cc;strokeColor=#d79b00;verticalAlign=bottom;" parent="B8Z1G3kK7npDInEbD9tJ-1" vertex="1">
          <mxGeometry x="1998" y="876" width="310" height="60" as="geometry" />
        </mxCell>
        <mxCell id="GHtyJ5mn8wVj7zlRt9Mc-12" value="" style="shape=message;html=1;html=1;outlineConnect=0;labelPosition=center;verticalLabelPosition=bottom;align=center;verticalAlign=top;container=0;" parent="B8Z1G3kK7npDInEbD9tJ-1" vertex="1">
          <mxGeometry x="2008" y="893.5" width="40" height="25" as="geometry" />
        </mxCell>
        <mxCell id="GHtyJ5mn8wVj7zlRt9Mc-13" value="" style="shape=message;html=1;html=1;outlineConnect=0;labelPosition=center;verticalLabelPosition=bottom;align=center;verticalAlign=top;container=0;" parent="B8Z1G3kK7npDInEbD9tJ-1" vertex="1">
          <mxGeometry x="2058" y="893.5" width="40" height="25" as="geometry" />
        </mxCell>
        <mxCell id="GHtyJ5mn8wVj7zlRt9Mc-14" value="" style="shape=message;html=1;html=1;outlineConnect=0;labelPosition=center;verticalLabelPosition=bottom;align=center;verticalAlign=top;container=0;" parent="B8Z1G3kK7npDInEbD9tJ-1" vertex="1">
          <mxGeometry x="2108" y="893.5" width="40" height="25" as="geometry" />
        </mxCell>
        <mxCell id="GHtyJ5mn8wVj7zlRt9Mc-15" value="" style="shape=message;html=1;html=1;outlineConnect=0;labelPosition=center;verticalLabelPosition=bottom;align=center;verticalAlign=top;container=0;" parent="B8Z1G3kK7npDInEbD9tJ-1" vertex="1">
          <mxGeometry x="2158" y="893.5" width="40" height="25" as="geometry" />
        </mxCell>
        <mxCell id="GHtyJ5mn8wVj7zlRt9Mc-16" value="" style="shape=message;html=1;html=1;outlineConnect=0;labelPosition=center;verticalLabelPosition=bottom;align=center;verticalAlign=top;container=0;" parent="B8Z1G3kK7npDInEbD9tJ-1" vertex="1">
          <mxGeometry x="2208" y="893.5" width="40" height="25" as="geometry" />
        </mxCell>
        <mxCell id="GHtyJ5mn8wVj7zlRt9Mc-17" value="" style="shape=message;html=1;html=1;outlineConnect=0;labelPosition=center;verticalLabelPosition=bottom;align=center;verticalAlign=top;container=0;" parent="B8Z1G3kK7npDInEbD9tJ-1" vertex="1">
          <mxGeometry x="2258" y="893.5" width="40" height="25" as="geometry" />
        </mxCell>
        <mxCell id="GHtyJ5mn8wVj7zlRt9Mc-18" value="" style="group;fillColor=#dae8fc;strokeColor=#6c8ebf;container=0;" parent="B8Z1G3kK7npDInEbD9tJ-1" vertex="1" connectable="0">
          <mxGeometry x="1998" y="806" width="310" height="60" as="geometry" />
        </mxCell>
        <mxCell id="GHtyJ5mn8wVj7zlRt9Mc-19" value="order-topic" style="rounded=0;whiteSpace=wrap;html=1;container=0;fillColor=#dae8fc;strokeColor=#6c8ebf;verticalAlign=bottom;" parent="B8Z1G3kK7npDInEbD9tJ-1" vertex="1">
          <mxGeometry x="1998" y="806" width="310" height="60" as="geometry" />
        </mxCell>
        <mxCell id="GHtyJ5mn8wVj7zlRt9Mc-20" value="" style="shape=message;html=1;html=1;outlineConnect=0;labelPosition=center;verticalLabelPosition=bottom;align=center;verticalAlign=top;container=0;" parent="B8Z1G3kK7npDInEbD9tJ-1" vertex="1">
          <mxGeometry x="2008" y="823.5" width="40" height="25" as="geometry" />
        </mxCell>
        <mxCell id="GHtyJ5mn8wVj7zlRt9Mc-21" value="" style="shape=message;html=1;html=1;outlineConnect=0;labelPosition=center;verticalLabelPosition=bottom;align=center;verticalAlign=top;container=0;" parent="B8Z1G3kK7npDInEbD9tJ-1" vertex="1">
          <mxGeometry x="2058" y="823.5" width="40" height="25" as="geometry" />
        </mxCell>
        <mxCell id="GHtyJ5mn8wVj7zlRt9Mc-22" value="" style="shape=message;html=1;html=1;outlineConnect=0;labelPosition=center;verticalLabelPosition=bottom;align=center;verticalAlign=top;container=0;" parent="B8Z1G3kK7npDInEbD9tJ-1" vertex="1">
          <mxGeometry x="2108" y="823.5" width="40" height="25" as="geometry" />
        </mxCell>
        <mxCell id="GHtyJ5mn8wVj7zlRt9Mc-23" value="" style="shape=message;html=1;html=1;outlineConnect=0;labelPosition=center;verticalLabelPosition=bottom;align=center;verticalAlign=top;container=0;" parent="B8Z1G3kK7npDInEbD9tJ-1" vertex="1">
          <mxGeometry x="2158" y="823.5" width="40" height="25" as="geometry" />
        </mxCell>
        <mxCell id="GHtyJ5mn8wVj7zlRt9Mc-24" value="" style="shape=message;html=1;html=1;outlineConnect=0;labelPosition=center;verticalLabelPosition=bottom;align=center;verticalAlign=top;container=0;" parent="B8Z1G3kK7npDInEbD9tJ-1" vertex="1">
          <mxGeometry x="2208" y="823.5" width="40" height="25" as="geometry" />
        </mxCell>
        <mxCell id="GHtyJ5mn8wVj7zlRt9Mc-25" value="" style="shape=message;html=1;html=1;outlineConnect=0;labelPosition=center;verticalLabelPosition=bottom;align=center;verticalAlign=top;container=0;" parent="B8Z1G3kK7npDInEbD9tJ-1" vertex="1">
          <mxGeometry x="2258" y="823.5" width="40" height="25" as="geometry" />
        </mxCell>
        <mxCell id="GHtyJ5mn8wVj7zlRt9Mc-26" value="&lt;b&gt;Kafka Broker&lt;/b&gt;" style="text;html=1;align=center;verticalAlign=middle;resizable=0;points=[];autosize=1;strokeColor=none;fillColor=none;" parent="B8Z1G3kK7npDInEbD9tJ-1" vertex="1">
          <mxGeometry x="2080.5" y="946" width="100" height="30" as="geometry" />
        </mxCell>
        <mxCell id="GHtyJ5mn8wVj7zlRt9Mc-27" value="" style="shape=image;verticalLabelPosition=bottom;labelBackgroundColor=default;verticalAlign=top;aspect=fixed;imageAspect=0;image=https://www.opc-router.de/wp-content/uploads/2021/03/mongodb_thumbnail.png;" parent="B8Z1G3kK7npDInEbD9tJ-1" vertex="1">
          <mxGeometry x="2511.65" y="990" width="70.63" height="95" as="geometry" />
        </mxCell>
        <mxCell id="GHtyJ5mn8wVj7zlRt9Mc-28" value="" style="sketch=0;aspect=fixed;html=1;points=[];align=center;image;fontSize=12;image=img/lib/mscae/Docker.svg;fillColor=none;" parent="B8Z1G3kK7npDInEbD9tJ-1" vertex="1">
          <mxGeometry x="2478" y="1044" width="50" height="41" as="geometry" />
        </mxCell>
        <mxCell id="GHtyJ5mn8wVj7zlRt9Mc-29" value="" style="verticalLabelPosition=bottom;html=1;verticalAlign=top;strokeWidth=1;align=center;outlineConnect=0;dashed=0;outlineConnect=0;shape=mxgraph.aws3d.email_service;fillColor=#dae8fc;strokeColor=#6c8ebf;aspect=fixed;" parent="B8Z1G3kK7npDInEbD9tJ-1" vertex="1">
          <mxGeometry x="2518.65" y="686" width="56.62" height="72" as="geometry" />
        </mxCell>
      </root>
    </mxGraphModel>
  </diagram>
</mxfile>
